:SAMPLES-PER-SECOND 30
:FULLY-SPECIFIED
:DEGREES
391
root  -41.5563 39.6979 -8.56616 -1.91719 20.0373 -2.09161
RightUpLeg  -3.11907 -13.1352 -9.4508
RightLeg  11.713 6.20432 3.00373
RightFoot  -7.04195 -0.425224 10.0256
RightToes  5.47152e-009 0 -3.6325e-017
Spine  6.46283 -0.655016 14.6053
Spine1  7.10794 1.62627 -5.19367
HEad  -13.2821 25.4103 -12.1965
LeftShoulder1  -0.405813 4.58804 -31.2953
LeftArm  6.79028 14.1293 -37.1657
LeftForeArm  17.3418 -18.3505 -5.6788
LeftHand  -0.0524999 3.6987 2.33214
RightShoulder  -0.591834 -5.30577 26.1142
RightArm  8.55496 -5.48926 35.5155
RightForeArm  7.08219 5.82625 4.79415
RightHand  -0.223488 0.00816964 -4.82831
LeftUpLeg  -11.9569 1.09051 0.759056
LeftLeg  50.6355 0.100925 0.581586
LeftFoot  -6.20323 0.098033 -1.37114
LeftToes  -4.29285e-010 1.49941e-010 2.15559e-012
392
root  -41.6411 39.8072 -7.92079 -1.40117 24.0179 -1.41711
RightUpLeg  -0.96828 -13.6367 -10.2509
RightLeg  10.7643 3.04658 2.75146
RightFoot  -7.60852 -0.376944 9.94934
RightToes  5.47152e-009 0 -3.6325e-017
Spine  6.46997 -0.54742 14.5448
Spine1  6.83551 1.63615 -5.05603
HEad  -13.6745 27.8407 -13.6741
LeftShoulder1  -0.409178 4.59767 -31.2189
LeftArm  2.90803 15.6116 -35.9916
LeftForeArm  17.0609 -16.965 -5.97109
LeftHand  -0.0563894 3.8493 2.89208
RightShoulder  -0.652664 -5.47482 26.3731
RightArm  8.90639 -4.46396 35.7556
RightForeArm  7.02892 7.30225 4.99542
RightHand  -0.242753 0.42216 -4.94369
LeftUpLeg  -14.9886 3.64493 0.246229
LeftLeg  49.0343 -1.33716 -1.20621
LeftFoot  -6.69728 0.153381 -2.77922
LeftToes  -4.29285e-010 1.49941e-010 2.15559e-012
393
root  -41.6664 39.8883 -7.26871 -0.720073 28.1384 -0.543701
RightUpLeg  0.985247 -13.966 -10.9686
RightLeg  10.1985 -0.376321 2.30438
RightFoot  -8.2812 -0.317677 9.7569
RightToes  5.47152e-009 0 -3.6325e-017
Spine  6.12394 -0.271019 14.683
Spine1  6.96189 1.98255 -5.80341
HEad  -13.4568 28.7677 -13.6966
LeftShoulder1  -0.313464 4.35937 -30.5048
LeftArm  -2.0998 16.128 -35.9283
LeftForeArm  17.4688 -14.7137 -6.22506
LeftHand  -0.0506123 4.33675 3.26022
RightShoulder  -0.771121 -5.78488 27.1722
RightArm  8.94211 -3.8938 35.7245
RightForeArm  6.45124 9.61992 5.00244
RightHand  -0.22466 1.21616 -4.05426
LeftUpLeg  -17.512 5.26427 -0.834228
LeftLeg  45.3634 -2.61168 -2.42578
LeftFoot  -7.06349 0.138236 -2.56486
LeftToes  -4.29285e-010 1.49941e-010 2.15559e-012
394
root  -41.6383 39.9275 -6.66374 0.0841666 31.7972 0.239136
RightUpLeg  2.42563 -13.8707 -11.2143
RightLeg  9.99286 -3.92301 1.62557
RightFoot  -8.95242 -0.260842 9.5594
RightToes  5.47152e-009 0 -3.6325e-017
Spine  6.32906 0.0524511 14.3149
Spine1  6.34269 2.15272 -5.69045
HEad  -13.8039 28.6277 -14.2016
LeftShoulder1  -0.360082 4.47581 -30.9025
LeftArm  -5.32466 16.0933 -35.2876
LeftForeArm  17.5484 -12.4446 -6.27422
LeftHand  -0.043519 4.42335 2.60852
RightShoulder  -0.660961 -5.4828 26.7107
RightArm  8.76387 -3.09983 37.0781
RightForeArm  4.59446 10.6786 4.96829
RightHand  -0.292923 1.75167 -4.93525
LeftUpLeg  -19.6179 6.69286 -1.98908
LeftLeg  39.9405 -3.34813 -2.63427
LeftFoot  -7.14884 0.117808 -2.04671
LeftToes  -4.29285e-010 1.49941e-010 2.15559e-012
395
root  -41.5356 39.961 -6.03966 0.671187 35.264 1.05609
RightUpLeg  4.56111 -14.1302 -11.8066
RightLeg  9.28188 -6.85988 1.6312
RightFoot  -9.54084 -0.214259 9.48618
RightToes  5.47152e-009 0 -3.6325e-017
Spine  6.24274 0.319403 13.9627
Spine1  6.5944 2.46804 -6.32575
HEad  -14.8998 26.8661 -14.5087
LeftShoulder1  -0.333101 4.41928 -30.2457
LeftArm  -7.50531 16.1014 -35.7456
LeftForeArm  17.5652 -10.7666 -6.04831
LeftHand  -0.0310285 5.06774 2.90741
RightShoulder  -0.691046 -5.55938 26.9377
RightArm  9.21411 -1.54803 38.0537
RightForeArm  4.51102 12.1844 4.96157
RightHand  -0.293375 2.33928 -4.60034
LeftUpLeg  -20.4232 7.99364 -3.18962
LeftLeg  32.4188 -3.48957 -2.0448
LeftFoot  -7.11035 0.114205 -1.9279
LeftToes  -4.29285e-010 1.49941e-010 2.15559e-012
396
root  -41.3516 40.0062 -5.41716 1.52218 38.2734 1.98425
RightUpLeg  6.77728 -14.1245 -12.2804
RightLeg  7.82671 -9.68753 1.6749
RightFoot  -9.90318 -0.191444 9.87083
RightToes  5.47152e-009 0 -3.6325e-017
Spine  6.1644 0.69712 12.9078
Spine1  6.58185 2.69324 -6.26592
HEad  -15.1004 25.6703 -14.5001
LeftShoulder1  -0.342146 4.43253 -30.7045
LeftArm  -8.0307 16.2946 -35.4405
LeftForeArm  17.4965 -9.65973 -6.00258
LeftHand  -0.00759923 6.19779 2.98278
RightShoulder  -0.629359 -5.40342 26.4238
RightArm  9.68905 -0.217859 39.4644
RightForeArm  4.57837 13.5659 4.88684
RightHand  -0.295053 2.26057 -4.69693
LeftUpLeg  -20.4462 10.4066 -4.81949
LeftLeg  23.1735 -3.46364 -1.14629
LeftFoot  -6.40927 0.137488 -2.31775
LeftToes  -4.29285e-010 1.49941e-010 2.15559e-012
397
root  -41.0941 39.9923 -4.81688 2.16829 40.7288 2.42352
RightUpLeg  8.70257 -13.8746 -12.2254
RightLeg  6.52025 -12.1946 1.80257
RightFoot  -10.2259 -0.170415 10.3047
RightToes  5.47152e-009 0 -3.6325e-017
Spine  6.30378 0.96001 12.6527
Spine1  6.35214 3.07581 -7.03143
HEad  -14.3966 24.8507 -13.8096
LeftShoulder1  -0.331746 4.40026 -30.8694
LeftArm  -8.53311 16.7214 -35.3413
LeftForeArm  18.6161 -8.46661 -5.81268
LeftHand  -0.033678 4.807 1.60611
RightShoulder  -0.649873 -5.4667 26.4104
RightArm  10.4154 1.45868 40.9258
RightForeArm  2.56933 14.9335 4.92519
RightHand  -0.40534 1.80674 -6.7218
LeftUpLeg  -19.9248 11.1323 -5.31514
LeftLeg  13.4569 -0.104339 -0.894466
LeftFoot  -4.74895 0.168781 -2.38526
LeftToes  -4.29285e-010 1.49941e-010 2.15559e-012
398
root  -40.7107 39.986 -4.20761 2.62919 42.8444 2.9425
RightUpLeg  11.4875 -13.7706 -12.5326
RightLeg  4.10654 -14.1674 2.52019
RightFoot  -10.1182 -0.180459 10.3733
RightToes  5.47152e-009 0 -3.6325e-017
Spine  6.25428 0.993117 12.2839
Spine1  6.8142 3.38123 -8.14979
HEad  -14.0279 24.7199 -12.7767
LeftShoulder1  -0.329173 4.39559 -30.7751
LeftArm  -8.88677 17.8405 -35.7293
LeftForeArm  19.9501 -8.15901 -5.60877
LeftHand  -0.0323953 4.56995 1.13459
RightShoulder  -0.616738 -5.3695 26.3325
RightArm  10.9762 3.11111 42.6981
RightForeArm  1.54389 16.4202 4.84313
RightHand  -0.422029 2.60675 -6.35049
LeftUpLeg  -18.3513 3.26632 -2.86209
LeftLeg  4.26664 12.2368 -2.16716
LeftFoot  -2.4814 0.226074 -2.74453
LeftToes  -4.29285e-010 1.49941e-010 2.15559e-012
399
root  -40.2031 39.8394 -3.5481 2.94292 45.093 2.66125
RightUpLeg  13.4708 -13.529 -12.0543
RightLeg  2.95359 -16.2814 3.01308
RightFoot  -10.6084 -0.139577 10.7182
RightToes  5.47152e-009 0 -3.6325e-017
Spine  5.30737 1.04165 11.7645
Spine1  7.5129 3.39157 -8.16904
HEad  -14.3613 24.3873 -12.1764
LeftShoulder1  -0.315565 4.35898 -30.7635
LeftArm  -9.09466 19.1153 -36.1216
LeftForeArm  21.2912 -7.96388 -5.48272
LeftHand  -0.0265792 4.27509 0.743755
RightShoulder  -0.575214 -5.25273 26.138
RightArm  11.3979 4.54167 44.457
RightForeArm  1.29852 18.0057 4.7128
RightHand  -0.421484 1.98937 -6.84917
LeftUpLeg  -18.5026 1.97537 -2.69451
LeftLeg  -0.69083 15.8545 -2.27015
LeftFoot  -1.93198 0.148156 -1.65616
LeftToes  -4.29285e-010 1.49941e-010 2.15559e-012
400
root  -39.5995 39.5976 -2.88778 2.65125 46.6344 2.47925
RightUpLeg  15.6423 -13.3218 -12.023
RightLeg  2.90722 -17.0519 3.03359
RightFoot  -11.7912 -0.0295611 12.6987
RightToes  5.47152e-009 0 -3.6325e-017
Spine  5.74432 1.27702 10.9466
Spine1  7.41683 3.6864 -8.17573
HEad  -14.9079 23.2544 -11.5674
LeftShoulder1  -0.289556 4.2883 -30.7736
LeftArm  -9.54083 20.1704 -36.6001
LeftForeArm  23.2463 -7.65287 -5.18357
LeftHand  0.00311036 3.35096 -1.36599
RightShoulder  -0.614735 -5.37629 26.1074
RightArm  11.7526 5.37298 45.9623
RightForeArm  1.89219 19.9622 4.61013
RightHand  -0.379374 3.31131 -5.28469
LeftUpLeg  -19.0672 1.96981 -2.70613
LeftLeg  -0.218165 17.5707 -1.92742
LeftFoot  -1.16293 0.0710282 -0.701258
LeftToes  -4.29285e-010 1.49941e-010 2.15559e-012
401
root  -38.8195 39.2845 -2.18066 2.32797 48.1182 2.35632
RightUpLeg  17.9778 -13.7481 -12.7648
RightLeg  3.57763 -16.8547 3.35073
RightFoot  -13.0931 0.130646 14.4155
RightToes  5.47152e-009 0 -3.6325e-017
Spine  5.48171 1.54198 10.1787
Spine1  7.80738 3.96514 -8.29612
HEad  -15.7328 22.2307 -10.579
LeftShoulder1  -0.301285 4.3162 -30.953
LeftArm  -9.43831 20.8837 -36.7134
LeftForeArm  24.6973 -7.39509 -5.22551
LeftHand  -0.0018709 3.89377 -1.6
RightShoulder  -0.606382 -5.36147 25.9141
RightArm  11.4342 5.37826 47.5742
RightForeArm  2.38911 22.0315 4.66622
RightHand  -0.398786 3.40547 -5.4953
LeftUpLeg  -20.2004 2.52823 -2.8733
LeftLeg  4.53482 17.2817 -0.879091
LeftFoot  -0.0896973 -0.141375 1.40286
LeftToes  -4.29285e-010 1.49941e-010 2.15559e-012
402
root  -37.8816 38.9836 -1.47009 2.2808 48.9912 2.97852
RightUpLeg  20.411 -14.5097 -14.495
RightLeg  4.8331 -15.5311 3.07176
RightFoot  -13.9134 0.283504 16.6035
RightToes  5.47152e-009 0 -3.6325e-017
Spine  5.58838 1.8606 9.43012
Spine1  7.75307 4.58946 -9.58531
HEad  -15.6026 21.6567 -9.3856
LeftShoulder1  -0.298913 4.30989 -30.9436
LeftArm  -9.44682 21.7918 -36.5832
LeftForeArm  26.068 -6.96894 -5.1707
LeftHand  0.00100232 3.56118 -1.41248
RightShoulder  -0.583056 -5.27758 26.1251
RightArm  12.082 4.75392 48.7677
RightForeArm  1.92066 23.5902 4.94475
RightHand  -0.492203 3.56513 -6.63124
LeftUpLeg  -21.116 4.68671 -4.16344
LeftLeg  10.2725 16.9728 0.485354
LeftFoot  2.60395 -0.669602 5.23901
LeftToes  -4.29285e-010 1.49941e-010 2.15559e-012
